<svg version="1.1" id="Logo" xmlns="http://www.w3.org/2000/svg" x="0" y="0" viewBox="0 0 137 28" xml:space="preserve"><style>.st0{enable-background:new}.st1{fill:#fefefe}.st2{fill:#65e496}</style><g class="st0"><path class="st1" d="M50.2 3.1c2.1 0 3.7.4 4.9 1.3 1.2.9 1.8 2.2 1.8 4 0 .9-.3 1.7-.8 2.4s-1.3 1.2-2.2 1.6c1.2.3 2.1.8 2.8 1.8.7.9 1 2 1 3.2 0 1.8-.6 3.2-1.8 4.2-1.2 1-2.8 1.4-4.8 1.4h-9.6v-1.7l2.2-.4V5.2l-2.2-.4V3.1h8.7zm-3.8 8.5h4.5c1 0 1.7-.3 2.3-.9.6-.5.9-1.3.9-2.3 0-1.1-.3-1.9-1-2.4s-1.6-.8-2.9-.8h-3.8v6.4zm0 2.1v7.2H51c1.2 0 2.2-.3 2.9-.9.7-.6 1-1.5 1-2.6 0-1.2-.3-2.1-.9-2.7-.6-.7-1.4-1-2.6-1h-5zM66.8 3.1v1.7l-2.2.4v11.4c0 1.5.4 2.6 1.3 3.4.9.8 2 1.2 3.4 1.2 1.5 0 2.7-.4 3.6-1.2s1.4-1.9 1.4-3.4V5.2L72 4.8V3.1H79.1v1.7l-2.2.4v11.4c0 2.2-.7 3.8-2.1 5s-3.2 1.7-5.5 1.7c-2.2 0-4-.6-5.3-1.7-1.4-1.2-2-2.8-2-5V5.2l-2.2-.4V3.1h7zM80.9 21.3l2.2-.4V5.2l-2.2-.4V3.1h7.2v1.7l-2.2.4v6.7H88L93.5 5 92 4.8V3.1h6.3v1.7l-1.9.3-6.1 7.5 6.6 8.2 1.9.3V23h-6.5v-1.7l1.5-.2-5.6-7.1h-2.3v6.9l2.2.4V23h-7.2v-1.7z"/></g><g class="st0"><path class="st2" d="M100.8 23v-1.7l2.2-.4V5.2l-2.2-.4V3.1h15.3v4.8h-2.3l-.2-2.7h-7.8v6.4h7.6v2.1h-7.6v7.1h8l.2-2.7h2.3V23h-15.5zM118.6 23v-1.7l2.2-.4V5.2l-2.2-.4V3.1h15.3v4.8h-2.3l-.2-2.7h-7.8v6.4h7.6v2.1h-7.6v7.1h8l.2-2.7h2.3V23h-15.5z"/></g><g id="logo_icon"><path id="Rectangle_10_copy_3" class="st2" d="M28 28L0 0h28v28z"/><path d="M28 0L0 28V0h28z" fill="#44444f"/></g></svg>